<?xml version="1.0" encoding="UTF-8"?>
<svg version="1.1" xmlns="http://www.w3.org/2000/svg" width="500" height="500">
<path d="M0 0 C0.90161865 -0.00281982 1.8032373 -0.00563965 2.73217773 -0.00854492 C3.72394516 -0.00652069 4.71571259 -0.00449646 5.73753357 -0.00241089 C6.77985138 -0.00416321 7.82216919 -0.00591553 8.89607239 -0.00772095 C12.35422919 -0.01213569 15.81233519 -0.00920299 19.27049255 -0.00582886 C21.66420502 -0.00650195 24.05791741 -0.00747203 26.45162964 -0.00872803 C31.47288157 -0.01020445 36.49411573 -0.00805203 41.5153656 -0.00338745 C47.96771691 0.00231287 54.42002666 -0.00097145 60.87237644 -0.00695992 C65.81612464 -0.01056441 70.75986289 -0.00942751 75.70361137 -0.00683212 C78.08358197 -0.0061627 80.46355346 -0.0069918 82.84352303 -0.00931168 C86.16238439 -0.0118367 89.48117734 -0.00799987 92.80003357 -0.00241089 C94.29072105 -0.00544724 94.29072105 -0.00544724 95.81152344 -0.00854492 C96.71032227 -0.0057251 97.60912109 -0.00290527 98.53515625 0 C99.32069161 0.00037703 100.10622698 0.00075405 100.91556644 0.0011425 C102.7040863 0.12698364 102.7040863 0.12698364 103.7040863 1.12698364 C103.80472829 4.16564125 103.8402322 7.18161094 103.83348083 10.22073364 C103.83610931 11.65231812 103.83610931 11.65231812 103.83879089 13.11282349 C103.84321117 16.28422842 103.8402708 19.45557809 103.8368988 22.62698364 C103.83757179 24.82034313 103.83854177 27.01370254 103.83979797 29.20706177 C103.84127519 33.81058459 103.83911964 38.41408806 103.8344574 43.01760864 C103.8287601 48.93302959 103.83203898 54.84840518 103.83802986 60.76382446 C103.84163485 65.2949559 103.84049718 69.8260765 103.83790207 74.35720825 C103.83723263 76.53901169 103.83806182 78.7208161 103.84038162 80.90261841 C103.84290712 83.94618354 103.839069 86.9896741 103.83348083 90.03323364 C103.83550507 90.9444397 103.8375293 91.85564575 103.83961487 92.79446411 C103.8183486 99.01272135 103.8183486 99.01272135 102.7040863 100.12698364 C101.01606645 100.22051527 99.32413423 100.24443155 97.63352966 100.24050903 C96.55248459 100.2404335 95.47143951 100.24035797 94.3576355 100.24028015 C92.5936013 100.23253822 92.5936013 100.23253822 90.79393005 100.22463989 C89.59675858 100.22322495 88.3995871 100.22181 87.1661377 100.22035217 C83.32459564 100.21473343 79.48311088 100.20217775 75.6415863 100.18948364 C73.04458193 100.18447106 70.44757666 100.17990773 67.85057068 100.17581177 C61.46838952 100.16475792 55.086242 100.14800156 48.7040863 100.12698364 C48.18749451 99.2214978 47.67090271 98.31601196 47.13865662 97.38308716 C43.26550127 90.59747546 39.37955267 83.82000895 35.4540863 77.06448364 C31.48691397 70.22704009 27.55510391 63.37026042 23.6415863 56.50198364 C16.8819163 44.64948596 9.97211483 32.89064245 2.9540863 21.18948364 C2.58597839 20.57379517 2.21787048 19.95810669 1.83860779 19.32376099 C0.1796423 16.55494271 -1.50010293 13.80416625 -3.2256012 11.07620239 C-3.78505432 10.18546021 -4.34450745 9.29471802 -4.9209137 8.37698364 C-5.40817932 7.61901489 -5.89544495 6.86104614 -6.3974762 6.08010864 C-7.2959137 4.12698364 -7.2959137 4.12698364 -6.2959137 1.12698364 C-3.96000393 -0.04097124 -2.60203932 0.00124828 0 0 Z " fill="#19DFDB" transform="translate(232.29591369628906,198.87301635742188)"/>
<path d="M0 0 C3.6882174 3.0373555 5.62703044 5.99784151 7.6875 10.3125 C9.99985983 15.1415949 12.55460612 19.62803428 15.4375 24.125 C22.05706813 34.49005423 28.08619368 45.19676451 34.19848633 55.86547852 C38.03360148 62.53833981 41.90085891 69.19166802 45.87109375 75.78515625 C46.29970703 76.49994141 46.72832031 77.21472656 47.16992188 77.95117188 C48.03773755 79.39663989 48.91037568 80.83922054 49.78710938 82.27929688 C50.20669922 82.98248047 50.62628906 83.68566406 51.05859375 84.41015625 C51.43298584 85.03027588 51.80737793 85.65039551 52.19311523 86.28930664 C53 88 53 88 53 91 C53.66 91 54.32 91 55 91 C56.76462683 94.08809695 57 95.23312136 57 99 C19.38 99 -18.24 99 -57 99 C-55.72035966 95.80089915 -54.65943708 93.22289563 -52.9609375 90.33984375 C-52.55367432 89.6432666 -52.14641113 88.94668945 -51.72680664 88.22900391 C-51.28071045 87.47280762 -50.83461426 86.71661133 -50.375 85.9375 C-49.38067257 84.23616648 -48.38723901 82.53431034 -47.39453125 80.83203125 C-46.8526416 79.90342285 -46.31075195 78.97481445 -45.75244141 78.01806641 C-42.84040371 73.00293544 -39.96624563 67.96616646 -37.09210205 62.92926025 C-36.05983581 61.12033131 -35.02682874 59.31182721 -33.99365234 57.50341797 C-30.85270502 52.00457209 -27.71629721 46.50319873 -24.58984375 40.99609375 C-19.79586001 32.56025514 -14.96242569 24.17875136 -9.8203125 15.94921875 C-7.24184539 11.77165937 -4.79335017 7.52191237 -2.34765625 3.265625 C-1 1 -1 1 0 0 Z " fill="#151D1E" transform="translate(212,200)"/>
<path d="M0 0 C0.90161865 -0.00281982 1.8032373 -0.00563965 2.73217773 -0.00854492 C3.72394516 -0.00652069 4.71571259 -0.00449646 5.73753357 -0.00241089 C6.77985138 -0.00416321 7.82216919 -0.00591553 8.89607239 -0.00772095 C12.35422919 -0.01213569 15.81233519 -0.00920299 19.27049255 -0.00582886 C21.66420502 -0.00650195 24.05791741 -0.00747203 26.45162964 -0.00872803 C31.47288157 -0.01020445 36.49411573 -0.00805203 41.5153656 -0.00338745 C47.96771691 0.00231287 54.42002666 -0.00097145 60.87237644 -0.00695992 C65.81612464 -0.01056441 70.75986289 -0.00942751 75.70361137 -0.00683212 C78.08358197 -0.0061627 80.46355346 -0.0069918 82.84352303 -0.00931168 C86.16238439 -0.0118367 89.48117734 -0.00799987 92.80003357 -0.00241089 C94.29072105 -0.00544724 94.29072105 -0.00544724 95.81152344 -0.00854492 C96.71032227 -0.0057251 97.60912109 -0.00290527 98.53515625 0 C99.32069161 0.00037703 100.10622698 0.00075405 100.91556644 0.0011425 C102.7040863 0.12698364 102.7040863 0.12698364 103.7040863 1.12698364 C103.80472829 4.16564125 103.8402322 7.18161094 103.83348083 10.22073364 C103.83610931 11.65231812 103.83610931 11.65231812 103.83879089 13.11282349 C103.84321117 16.28422842 103.8402708 19.45557809 103.8368988 22.62698364 C103.83757179 24.82034313 103.83854177 27.01370254 103.83979797 29.20706177 C103.84127519 33.81058459 103.83911964 38.41408806 103.8344574 43.01760864 C103.8287601 48.93302959 103.83203898 54.84840518 103.83802986 60.76382446 C103.84163485 65.2949559 103.84049718 69.8260765 103.83790207 74.35720825 C103.83723263 76.53901169 103.83806182 78.7208161 103.84038162 80.90261841 C103.84290712 83.94618354 103.839069 86.9896741 103.83348083 90.03323364 C103.83550507 90.9444397 103.8375293 91.85564575 103.83961487 92.79446411 C103.8183486 99.01272135 103.8183486 99.01272135 102.7040863 100.12698364 C101.01606645 100.22051527 99.32413423 100.24443155 97.63352966 100.24050903 C96.55248459 100.2404335 95.47143951 100.24035797 94.3576355 100.24028015 C92.5936013 100.23253822 92.5936013 100.23253822 90.79393005 100.22463989 C89.59675858 100.22322495 88.3995871 100.22181 87.1661377 100.22035217 C83.32459564 100.21473343 79.48311088 100.20217775 75.6415863 100.18948364 C73.04458193 100.18447106 70.44757666 100.17990773 67.85057068 100.17581177 C61.46838952 100.16475792 55.086242 100.14800156 48.7040863 100.12698364 C49.0340863 99.46698364 49.3640863 98.80698364 49.7040863 98.12698364 C66.8640863 98.45698364 84.0240863 98.78698364 101.7040863 99.12698364 C101.7040863 66.78698364 101.7040863 34.44698364 101.7040863 1.12698364 C91.8040863 1.62198364 91.8040863 1.62198364 81.7040863 2.12698364 C80.3840863 4.10698364 79.0640863 6.08698364 77.7040863 8.12698364 C77.17685974 8.91202271 76.64963318 9.69706177 76.10643005 10.50588989 C73.96610304 13.69640402 71.86115928 16.85210594 69.9540863 20.18948364 C69.5415863 20.82885864 69.1290863 21.46823364 68.7040863 22.12698364 C68.0440863 22.12698364 67.3840863 22.12698364 66.7040863 22.12698364 C66.4153363 22.86948364 66.1265863 23.61198364 65.8290863 24.37698364 C64.88105986 26.69438161 63.85562719 28.90615479 62.7040863 31.12698364 C62.0440863 31.12698364 61.3840863 31.12698364 60.7040863 31.12698364 C60.32123474 32.20786255 60.32123474 32.20786255 59.9306488 33.31057739 C58.62323782 36.31262619 57.05364219 38.58165386 55.0790863 41.18948364 C51.48893114 46.02163844 48.11753376 50.95541911 44.80174255 55.97854614 C41.17995354 61.41460191 37.43825196 66.76776441 33.7040863 72.12698364 C29.76251708 67.60632131 26.9925374 62.58410253 24.0790863 57.37698364 C23.00832214 55.48327337 21.93669559 53.59005048 20.86424255 51.69729614 C20.33202087 50.75660278 19.79979919 49.81590942 19.25144958 48.84671021 C13.95998439 39.54615446 8.45766566 30.36560138 2.9540863 21.18948364 C2.58597839 20.57379517 2.21787048 19.95810669 1.83860779 19.32376099 C0.1796423 16.55494271 -1.50010293 13.80416625 -3.2256012 11.07620239 C-3.78505432 10.18546021 -4.34450745 9.29471802 -4.9209137 8.37698364 C-5.40817932 7.61901489 -5.89544495 6.86104614 -6.3974762 6.08010864 C-7.2959137 4.12698364 -7.2959137 4.12698364 -6.2959137 1.12698364 C-3.96000393 -0.04097124 -2.60203932 0.00124828 0 0 Z " fill="#B9F1ED" transform="translate(232.29591369628906,198.87301635742188)"/>
<path d="M0 0 C17.16 0 34.32 0 52 0 C50.50071721 3.74820696 49.03469562 6.87895114 47 10.3125 C46.484375 11.19550781 45.96875 12.07851562 45.4375 12.98828125 C44.963125 13.65214844 44.48875 14.31601563 44 15 C43.34 15 42.68 15 42 15 C41.7525 15.53625 41.505 16.0725 41.25 16.625 C39.70117114 19.56777482 37.85636498 22.24044846 36 25 C34.99259766 26.51980469 34.99259766 26.51980469 33.96484375 28.0703125 C32.96130859 29.58238281 32.96130859 29.58238281 31.9375 31.125 C31.26589844 32.13820312 30.59429687 33.15140625 29.90234375 34.1953125 C29.27457031 35.12085938 28.64679688 36.04640625 28 37 C27.50628906 37.78117187 27.01257813 38.56234375 26.50390625 39.3671875 C26.00761719 39.90601563 25.51132813 40.44484375 25 41 C23.68 41 22.36 41 21 41 C19.37182617 38.97143555 19.37182617 38.97143555 17.79296875 36.13671875 C17.20580078 35.10353516 16.61863281 34.07035156 16.01367188 33.00585938 C15.41103516 31.91080078 14.80839844 30.81574219 14.1875 29.6875 C12.99571248 27.56515647 11.80170905 25.4440557 10.60546875 23.32421875 C10.01813965 22.27153809 9.43081055 21.21885742 8.82568359 20.13427734 C6.49869129 16.13936866 3.92624207 12.33473982 1.27856445 8.54614258 C0 6 0 6 0 0 Z " fill="#20E0DB" transform="translate(227,201)"/>
<path d="M0 0 C0.92987732 -0.00315216 1.85975464 -0.00630432 2.81781006 -0.009552 C3.83216125 -0.00752777 4.84651245 -0.00550354 5.89160156 -0.00341797 C7.47379486 -0.00485306 7.47379486 -0.00485306 9.08795166 -0.00631714 C11.3376064 -0.00699969 13.58726308 -0.00514021 15.83691406 -0.00097656 C19.19894158 0.00426469 22.56082884 -0.00086261 25.92285156 -0.00732422 C39.81979937 -0.01117635 53.65653193 0.3647159 67.53222656 1.12939453 C66.9187369 2.38930471 66.30134373 3.6473145 65.68237305 4.90454102 C65.33899399 5.60530258 64.99561493 6.30606415 64.64183044 7.02806091 C62.91556704 10.29720533 60.78899242 13.22476321 58.59472656 16.19189453 C58.17771484 16.76488281 57.76070313 17.33787109 57.33105469 17.92822266 C56.4932703 19.0793669 55.65368888 20.22920558 54.81225586 21.37768555 C50.76827722 26.84869739 50.76827722 26.84869739 47.09472656 32.56689453 C45.30903411 35.49543015 43.28261137 38.15882021 41.20800781 40.88720703 C38.79853418 44.11107152 36.50982092 47.41535887 34.21191406 50.71923828 C32.01221674 53.87554816 29.77476897 57.00342633 27.53222656 60.12939453 C24.53222656 59.12939453 24.53222656 59.12939453 23.45727539 57.54711914 C23.13782959 56.88204346 22.81838379 56.21696777 22.48925781 55.53173828 C22.13798828 54.81308594 21.78671875 54.09443359 21.42480469 53.35400391 C20.89016602 52.22188477 20.89016602 52.22188477 20.34472656 51.06689453 C19.97669922 50.30828125 19.60867187 49.54966797 19.22949219 48.76806641 C18.32137159 46.89285634 17.42561641 45.0116672 16.53222656 43.12939453 C18.01722656 42.63439453 18.01722656 42.63439453 19.53222656 42.12939453 C21.21727943 39.84632466 22.76339413 37.58122801 24.28222656 35.19189453 C25.17214113 33.82684778 26.06276939 32.46226605 26.95410156 31.09814453 C27.39044922 30.42525391 27.82679688 29.75236328 28.27636719 29.05908203 C29.99720721 26.41492972 31.75130481 23.79593138 33.53222656 21.19189453 C34.06847656 20.39912109 34.60472656 19.60634766 35.15722656 18.78955078 C35.61097656 18.24169922 36.06472656 17.69384766 36.53222656 17.12939453 C37.19222656 17.12939453 37.85222656 17.12939453 38.53222656 17.12939453 C38.73847656 16.32501953 38.94472656 15.52064453 39.15722656 14.69189453 C40.53222656 11.12939453 40.53222656 11.12939453 46.53222656 2.12939453 C29.37222656 2.12939453 12.21222656 2.12939453 -5.46777344 2.12939453 C-5.79777344 3.11939453 -6.12777344 4.10939453 -6.46777344 5.12939453 C-6.46777344 3.80939453 -6.46777344 2.48939453 -6.46777344 1.12939453 C-4.09255701 -0.05821368 -2.64971346 0.00257888 0 0 Z " fill="#ACEFEA" transform="translate(232.4677734375,198.87060546875)"/>
<path d="M0 0 C3.125 -0.1875 3.125 -0.1875 6 0 C2.72304131 7.44763338 -1.93661272 13.71944002 -6.7199707 20.24829102 C-10.76394934 25.71930286 -10.76394934 25.71930286 -14.4375 31.4375 C-16.22319245 34.36603562 -18.24961519 37.02942568 -20.32421875 39.7578125 C-22.73369238 42.98167699 -25.02240564 46.28596433 -27.3203125 49.58984375 C-29.52000982 52.74615362 -31.7574576 55.8740318 -34 59 C-35.125 57.4375 -35.125 57.4375 -36 55 C-34.8615643 48.8264695 -32.05333298 44.90998343 -28.1875 40.0625 C-27.13609633 38.72257764 -26.08790098 37.38013144 -25.04296875 36.03515625 C-24.5329834 35.37918457 -24.02299805 34.72321289 -23.49755859 34.04736328 C-21.48861617 31.30086978 -19.76647434 28.41487784 -18.0715332 25.46655273 C-17.71792725 24.98259033 -17.36432129 24.49862793 -17 24 C-16.34 24 -15.68 24 -15 24 C-14.73960937 23.2884375 -14.47921875 22.576875 -14.2109375 21.84375 C-12.93006903 18.83577502 -11.39284294 16.24826239 -9.625 13.5 C-9.03976562 12.5821875 -8.45453125 11.664375 -7.8515625 10.71875 C-6.02042989 8.02999832 -4.0466234 5.52669556 -2 3 C-1.34 2.01 -0.68 1.02 0 0 Z " fill="#28DFD9" transform="translate(294,200)"/>
<path d="M0 0 C0.33 0.99 0.66 1.98 1 3 C1.99 3.66 2.98 4.32 4 5 C3.01 6.485 3.01 6.485 2 8 C1.85884766 9.10601562 1.85884766 9.10601562 1.71484375 10.234375 C0.49300654 14.96148289 -2.91784253 18.38593873 -5.96289062 22.12109375 C-9.23440893 26.33540019 -10.78006074 29.83208816 -11.66040039 35.10839844 C-12 37 -12 37 -13 39 C-15.97 33.72 -18.94 28.44 -22 23 C-20.35 21.35 -18.7 19.7 -17 18 C-15.79334926 16.34085523 -14.62448319 14.6533977 -13.5 12.9375 C-10.995018 9.25112911 -8.6126463 6.65635758 -5 4 C-4.67 3.01 -4.34 2.02 -4 1 C-2 0 -2 0 0 0 Z " fill="#B9F1ED" transform="translate(271,220)"/>
<path d="M0 0 C6.6 0 13.2 0 20 0 C20 32.34 20 64.68 20 98 C2.84 98 -14.32 98 -32 98 C-32.495 95.525 -32.495 95.525 -33 93 C-32.6047966 93.48608231 -32.2095932 93.97216461 -31.80241394 94.47297668 C-29.47101715 96.44815962 -28.1908993 96.39343317 -25.16137695 96.43237305 C-24.16690552 96.45231323 -23.17243408 96.47225342 -22.14782715 96.49279785 C-20.58385193 96.5021637 -20.58385193 96.5021637 -18.98828125 96.51171875 C-18.02805054 96.52835571 -17.06781982 96.54499268 -16.07849121 96.56213379 C-12.4900505 96.61998677 -8.90123342 96.65219874 -5.3125 96.6875 C6.7221875 96.8421875 6.7221875 96.8421875 19 97 C19 65.32 19 33.64 19 1 C12.73 1 6.46 1 0 1 C0 0.67 0 0.34 0 0 Z " fill="#22D8CC" transform="translate(314,200)"/>
<path d="M0 0 C0.66 0.66 1.32 1.32 2 2 C2.99 2 3.98 2 5 2 C5 2.99 5 3.98 5 5 C5.99 6.485 5.99 6.485 7 8 C6.67 8.66 6.34 9.32 6 10 C6.61875 10.2475 7.2375 10.495 7.875 10.75 C10.41530728 12.2442984 11.02864183 13.24781851 12 16 C12 17.32 12 18.64 12 20 C12.66 20.33 13.32 20.66 14 21 C13.01 21 12.02 21 11 21 C9.75732422 19.50292969 9.75732422 19.50292969 8.5546875 17.421875 C8.11769531 16.67292969 7.68070313 15.92398438 7.23046875 15.15234375 C6.78316406 14.35957031 6.33585938 13.56679687 5.875 12.75 C5.41996094 11.97269531 4.96492187 11.19539062 4.49609375 10.39453125 C2.50653294 6.9408426 0.82010127 3.92988127 0 0 Z " fill="#96ECE7" transform="translate(227,204)"/>
<path d="M0 0 C1.093125 0.226875 2.18625 0.45375 3.3125 0.6875 C2.3225 1.1825 2.3225 1.1825 1.3125 1.6875 C1.6425 3.3375 1.9725 4.9875 2.3125 6.6875 C0.9925 6.0275 -0.3275 5.3675 -1.6875 4.6875 C-2.0175 6.3375 -2.3475 7.9875 -2.6875 9.6875 C-4.7120738 7.75495228 -6.10855792 6.05591312 -7.6875 3.6875 C-7.3575 2.6975 -7.0275 1.7075 -6.6875 0.6875 C-6.6875 1.3475 -6.6875 2.0075 -6.6875 2.6875 C-6.336875 2.171875 -5.98625 1.65625 -5.625 1.125 C-3.6875 -0.3125 -3.6875 -0.3125 0 0 Z " fill="#1ADFDC" transform="translate(283.6875,287.3125)"/>
<path d="M0 0 C2.475 0.495 2.475 0.495 5 1 C5.33 2.32 5.66 3.64 6 5 C7.32 4.67 8.64 4.34 10 4 C9.48967606 7.77639718 8.79233071 9.44722581 6 12 C4.99466333 10.37829621 3.99588093 8.75252763 3 7.125 C2.443125 6.22007812 1.88625 5.31515625 1.3125 4.3828125 C0 2 0 2 0 0 Z " fill="#CDF3F0" transform="translate(259,259)"/>
<path d="M0 0 C3.83412335 1.50626274 5.72845467 3.59268201 8 7 C8.85829481 9.32414661 9.43046974 11.57949641 10 14 C9.01 14 8.02 14 7 14 C5.17578125 11.4453125 5.17578125 11.4453125 3.3125 8.125 C2.68988281 7.03445313 2.06726563 5.94390625 1.42578125 4.8203125 C0 2 0 2 0 0 Z " fill="#76E7DF" transform="translate(267,273)"/>
<path d="M0 0 C0.33 0 0.66 0 1 0 C1 1.65 1 3.3 1 5 C1.66 5 2.32 5 3 5 C2.67 3.35 2.34 1.7 2 0 C2.99 0 3.98 0 5 0 C5.25 2.3125 5.25 2.3125 5 5 C3 6.8125 3 6.8125 1 8 C0.01 7.01 -0.98 6.02 -2 5 C-1.34 3.35 -0.68 1.7 0 0 Z " fill="#33E1DD" transform="translate(264,242)"/>
<path d="M0 0 C4.92307692 4.30769231 4.92307692 4.30769231 5.3125 7.8125 C5.209375 8.534375 5.10625 9.25625 5 10 C5.66 10.33 6.32 10.66 7 11 C6.01 11 5.02 11 4 11 C1.31900734 7.49408652 0.50483662 4.34159496 0 0 Z " fill="#6CE4DC" transform="translate(234,214)"/>
<path d="M0 0 C0.66 0 1.32 0 2 0 C1.58578031 4.83256305 -0.46413986 6.82679218 -4 10 C-4.66 9.67 -5.32 9.34 -6 9 C-5.05016642 7.49460339 -4.08988109 5.99579653 -3.125 4.5 C-2.59132813 3.6646875 -2.05765625 2.829375 -1.5078125 1.96875 C-0.76144531 0.99421875 -0.76144531 0.99421875 0 0 Z " fill="#A4F1EC" transform="translate(300,200)"/>
<path d="M0 0 C1.4540625 0.0309375 1.4540625 0.0309375 2.9375 0.0625 C2.2775 1.3825 1.6175 2.7025 0.9375 4.0625 C-0.3825 4.0625 -1.7025 4.0625 -3.0625 4.0625 C-4.8136573 5.4791747 -4.8136573 5.4791747 -6.0625 7.0625 C-3.83347902 0.07823427 -3.83347902 0.07823427 0 0 Z " fill="#21D9CB" transform="translate(297.0625,199.9375)"/>
<path d="M0 0 C0.33 1.32 0.66 2.64 1 4 C1.33 4.66 1.66 5.32 2 6 C1.01 6.33 0.02 6.66 -1 7 C-1.66 6.67 -2.32 6.34 -3 6 C-3.66 7.32 -4.32 8.64 -5 10 C-5.33 9.34 -5.66 8.68 -6 8 C-4.02 5.36 -2.04 2.72 0 0 Z " fill="#9FEFEB" transform="translate(277,234)"/>
<path d="M0 0 C0.88492145 2.47778006 1.11637742 3.66056586 0.25 6.1875 C-1 8 -1 8 -4 9 C-3.46930939 5.17902761 -2.50298434 2.93828597 0 0 Z " fill="#3DE1DC" transform="translate(270,264)"/>
<path d="M0 0 C0.99 0.33 1.98 0.66 3 1 C0.525 4.465 0.525 4.465 -2 8 C-2.66 6.68 -3.32 5.36 -4 4 C-3.34 4 -2.68 4 -2 4 C-1.34 2.68 -0.68 1.36 0 0 Z " fill="#30DCD5" transform="translate(262,251)"/>
<path d="M0 0 C0.33 0.66 0.66 1.32 1 2 C3.02463255 2.65213292 3.02463255 2.65213292 5 3 C5 4.98 5 6.96 5 9 C2.9754262 7.06745228 1.57894208 5.36841312 0 3 C0 2.01 0 1.02 0 0 Z " fill="#94E9E4" transform="translate(276,288)"/>
<path d="M0 0 C1.65 0 3.3 0 5 0 C5.33 1.65 5.66 3.3 6 5 C4.68 5 3.36 5 2 5 C1.34 3.35 0.68 1.7 0 0 Z " fill="#4FDFD8" transform="translate(246,237)"/>
<path d="M0 0 C1.875 0.625 1.875 0.625 4 2 C5.25 5.125 5.25 5.125 6 8 C2.24623848 6.74874616 1.75926711 5.4347596 0 2 C0 1.34 0 0.68 0 0 Z " fill="#6DE2DA" transform="translate(267,273)"/>
<path d="M0 0 C0.66 0 1.32 0 2 0 C2 0.66 2 1.32 2 2 C2.99 2.33 3.98 2.66 5 3 C5.33 5.31 5.66 7.62 6 10 C3.25722422 6.80009492 1.3697164 3.99500618 0 0 Z " fill="#E2F6F3" transform="translate(250,244)"/>
<path d="M0 0 C0.33 0.66 0.66 1.32 1 2 C0.34 2 -0.32 2 -1 2 C-1.28875 2.78375 -1.5775 3.5675 -1.875 4.375 C-3 7 -3 7 -5 9 C-5.33 7.68 -5.66 6.36 -6 5 C-5.34 5 -4.68 5 -4 5 C-3.71125 4.360625 -3.4225 3.72125 -3.125 3.0625 C-2 1 -2 1 0 0 Z " fill="#A0F0EC" transform="translate(278,222)"/>
<path d="M0 0 C0.33 0.66 0.66 1.32 1 2 C1.99 2.33 2.98 2.66 4 3 C3.67 3.66 3.34 4.32 3 5 C2.01 4.67 1.02 4.34 0 4 C-0.33 4.66 -0.66 5.32 -1 6 C-1.66 6 -2.32 6 -3 6 C-2.67 4.68 -2.34 3.36 -2 2 C-1.34 2 -0.68 2 0 2 C0 1.34 0 0.68 0 0 Z " fill="#19DDD4" transform="translate(286,213)"/>
<path d="M0 0 C1.32 0 2.64 0 4 0 C4 0.99 4 1.98 4 3 C3.360625 3.12375 2.72125 3.2475 2.0625 3.375 C1.381875 3.58125 0.70125 3.7875 0 4 C-0.33 4.66 -0.66 5.32 -1 6 C-1.33 5.34 -1.66 4.68 -2 4 C-1.0625 1.875 -1.0625 1.875 0 0 Z " fill="#2ADFD7" transform="translate(313,201)"/>
<path d="M0 0 C0.66 0 1.32 0 2 0 C0.75023244 3.65316671 0.32901247 4.78065836 -3 7 C-2.25 2.25 -2.25 2.25 0 0 Z " fill="#A8F2EF" transform="translate(268,234)"/>
<path d="M0 0 C1.32 0.33 2.64 0.66 4 1 C2 4 2 4 -0.125 4.6875 C-0.74375 4.790625 -1.3625 4.89375 -2 5 C-1.34 3.35 -0.68 1.7 0 0 Z " fill="#21DFDA" transform="translate(294,203)"/>
</svg>
